.
..............................Site Info...........................

 -   http://www.scenetime.com  *_*    

Scenetime .Always on time . friendly online private torrent community ..

     We care to share . Join us on  http://www.scenetime.com 

    Be the first to get new release at  http://www.scenetime.com

        Seed back for speed


...................................NFO:.................................................[IMG]http://i.imgur.com/qD9lu.gif[/IMG]

 
TITLE: 

Premium Rush 2012 TS XViD - INSPiRAL

IMDB: 
 
http://www.imdb.com/title/tt1547234/


SOURCES:

VIDEO - 720p MATiNE THANKS
AUDIO - Toothfairy  THANKS
SUBS  - ENG HC when needed None Add

STATS:

Video
ID                               : 0
Format                           : MPEG-4 Visual
Format profile                   : Advanced Simple@L5
Format settings, BVOP            : 2
Format settings, QPel            : No
Format settings, GMC             : No warppoints
Format settings, Matrix          : Default (MPEG)
Muxing mode                      : Packed bitstream
Codec ID                         : XVID
Codec ID/Hint                    : XviD
Duration                         : 1h 23mn
Bit rate                         : 2 225 Kbps
Width                            : 720 pixels
Height                           : 368 pixels
Display aspect ratio             : 1.957
Frame rate                       : 25.000 fps
Color space                      : YUV
Chroma subsampling               : 4:2:0
Bit depth                        : 8 bits
Scan type                        : Progressive
Compression mode                 : Lossy
Bits/(Pixel*Frame)               : 0.336
Stream size                      : 1.29 GiB (94%)
Writing library                  : XviD 64

Audio
ID                               : 1
Format                           : MPEG Audio
Format version                   : Version 1
Format profile                   : Layer 3
Mode                             : Joint stereo
Mode extension                   : MS Stereo
Codec ID                         : 55
Codec ID/Hint                    : MP3
Duration                         : 1h 23mn
Bit rate mode                    : Constant
Bit rate                         : 128 Kbps
Channel(s)                       : 2 channels
Sampling rate                    : 44.1 KHz
Compression mode                 : Lossy
Stream size                      : 76.1 MiB (5%)
Alignment                        : Split accross interleaves
Interleave, duration             : 40 ms (1.00 video frame)
Interleave, preload duration     : 500 ms




NOTES:

Ok took the 720p file off matine ...pretty nice but had faults.
Ar was whacked ,all had squashed heads,colours seemed a little off and there is some slight cam movement aswell 
as a tad cropped on the sides at least.
Fixed the colouring,contrast,brightnes and AR ...also used a smoother to remove some of the noise.Nothing could be 
done about the crop and you can only tell on the parts where there is long lines of subs ...there a little cropped.
Audio was nice by the toothfairy ....but needed some TLC so dropped in AA gave it some lovin and saved as mp3 128,than
finally remuxed :)

720p coming aswell ...all cleaned and fixed up :)


SCREENS:

[img]http://i.imgrz.com/oPFNC.png[/img] 
[img]http://i.imgrz.com/ic0Ot.png[/img] 
[img]http://i.imgrz.com/juEUo.png[/img] 
[img]http://i.imgrz.com/xQhJ8.png[/img] 
[img]http://i.imgrz.com/MHna4.png[/img] 


GREETZ: 

Past,Present and Future

[IMG]http://i.imgur.com/qD9lu.gif[/IMG]